<?xml version="1.0" encoding="utf-8"?>
<!-- Generator: Adobe Illustrator 22.1.0, SVG Export Plug-In . SVG Version: 6.00 Build 0)  -->
<svg version="1.1" id="Layer_1" xmlns="http://www.w3.org/2000/svg" xmlns:xlink="http://www.w3.org/1999/xlink" x="0px" y="0px"
	 viewBox="0 0 16 20" style="enable-background:new 0 0 16 20;" xml:space="preserve">
<style type="text/css">
	.st0{fill:#FFFFFF;}
</style>
<path id="XMLID_3066_" class="st0" d="M2.9,6.9c0-0.7,0-1.3,0-1.9c0-0.8,0.2-1.6,0.6-2.3c1-1.8,2.6-2.7,4.7-2.6
	c2.1,0.1,4.1,1.7,4.5,4.2c0,0.3,0,0.6,0.1,0.9c0,0.6,0,1.1,0,1.7c0.3,0,0.6,0,0.9,0c1.2,0,2.2,0.9,2.2,2.1c0,2.9,0,5.9,0,8.8
	c0,1.1-0.8,2.2-2.2,2.2c-2.6,0-5.2,0-7.7,0c-1.3,0-2.6,0-3.8,0c-1.1,0-2-0.7-2.2-1.7c0-0.1,0-0.3,0-0.4c0-2.9,0-5.9,0-8.8
	c0-1.3,0.9-2.2,2.2-2.2C2.3,6.9,2.6,6.9,2.9,6.9z M4.5,8.5c0,1,0,1.9,0,2.8c-0.5,0-1.1,0-1.6,0c0-0.9,0-1.9,0-2.8c0,0,0,0-0.1,0
	c-0.3,0-0.5,0-0.8,0c-0.4,0-0.6,0.2-0.6,0.6c0,2.9,0,5.8,0,8.7c0,0.5,0.2,0.6,0.6,0.6c3.8,0,7.7,0,11.5,0c0.5,0,0.7-0.2,0.7-0.7
	c0-2.9,0-5.8,0-8.7c0-0.1,0-0.1,0-0.2c0-0.3-0.2-0.5-0.4-0.5c-0.3,0-0.7,0-1.1,0c0,0.9,0,1.9,0,2.8c-0.5,0-1.1,0-1.6,0
	c0-0.9,0-1.9,0-2.8C8.9,8.5,6.7,8.5,4.5,8.5z M4.5,6.9c2.2,0,4.4,0,6.6,0c0-0.7,0-1.4,0-2.1c0-0.1,0-0.3-0.1-0.4
	c-0.3-1.5-1.6-2.6-3-2.7C6.3,1.6,4.9,2.8,4.6,4.2C4.4,5,4.5,6,4.5,6.9z"/>
</svg>
