<?xml version="1.0" encoding="iso-8859-1"?>
<!-- Generator: Adobe Illustrator 19.0.0, SVG Export Plug-In . SVG Version: 6.00 Build 0)  -->
<svg version="1.1" id="Capa_1" xmlns="http://www.w3.org/2000/svg" xmlns:xlink="http://www.w3.org/1999/xlink" x="0px" y="0px"
	 viewBox="0 0 480 480" style="enable-background:new 0 0 480 480;" xml:space="preserve">
<g>
	<g>
		<path d="M416,144c-35.288,0-64,28.712-64,64c0,18.432,7.88,35.024,20.392,46.712L328,288v-40
			c0-21.032-16.368-38.136-37.008-39.696l27.056-81.16c3.248,0.512,6.56,0.856,9.952,0.856c35.288,0,64-28.712,64-64
			S363.288,0,328,0c-35.288,0-64,28.712-64,64c0,26.288,15.944,48.904,38.656,58.744L274.24,208h-68.48l-27.56-82.672
			C204.648,117.456,224,92.96,224,64c0-35.288-28.712-64-64-64c-35.288,0-64,28.712-64,64s28.712,64,64,64
			c0.744,0,1.464-0.088,2.2-0.112l26.808,80.416C168.368,209.864,152,226.968,152,248v40l-44.392-33.296
			C120.12,243.024,128,226.432,128,208c0-35.288-28.712-64-64-64S0,172.712,0,208c0,35.288,28.712,64,64,64
			c10.84,0,21.04-2.728,30-7.504L152,308v132c0,22.056,17.944,40,40,40h96c22.056,0,40-17.944,40-40V308l58-43.504
			c8.96,4.776,19.16,7.504,30,7.504c35.288,0,64-28.712,64-64C480,172.712,451.288,144,416,144z M280,64c0-26.472,21.528-48,48-48
			s48,21.528,48,48s-21.528,48-48,48S280,90.472,280,64z M160,112c-26.472,0-48-21.528-48-48s21.528-48,48-48s48,21.528,48,48
			S186.472,112,160,112z M64,256c-26.472,0-48-21.528-48-48s21.528-48,48-48s48,21.528,48,48S90.472,256,64,256z M288,464h-96
			c-13.232,0-24-10.768-24-24h144C312,453.232,301.232,464,288,464z M312,424H168V264h144V424z M168,248c0-13.232,10.768-24,24-24
			h96c13.232,0,24,10.768,24,24H168z M416,256c-26.472,0-48-21.528-48-48s21.528-48,48-48s48,21.528,48,48S442.472,256,416,256z"/>
	</g>
</g>
<g>
	<g>
		<path d="M274.344,314.344L224,364.688l-18.344-18.344l-11.312,11.312l24,24c1.56,1.56,3.608,2.344,5.656,2.344
			c2.048,0,4.096-0.784,5.656-2.344l56-56L274.344,314.344z"/>
	</g>
</g>
<g>
	<g>
		<rect x="128" y="56" width="64" height="16"/>
	</g>
</g>
<g>
	<g>
		<rect x="384" y="200" width="64" height="16"/>
	</g>
</g>
<g>
	<g>
		<polygon points="72,200 72,176 56,176 56,200 32,200 32,216 56,216 56,240 72,240 72,216 96,216 96,200 		"/>
	</g>
</g>
<g>
	<g>
		<polygon points="356.28,47.032 344.968,35.72 328,52.688 311.032,35.72 299.72,47.032 316.688,64 299.72,80.968 311.032,92.28 
			328,75.312 344.968,92.28 356.28,80.968 339.312,64 		"/>
	</g>
</g>
<g>
	<g>
		<rect x="408" y="176" width="16" height="16"/>
	</g>
</g>
<g>
	<g>
		<rect x="408" y="224" width="16" height="16"/>
	</g>
</g>
<g>
	<g>
		<rect x="72" y="360" width="16" height="16"/>
	</g>
</g>
<g>
	<g>
		<rect x="72" y="392" width="16" height="16"/>
	</g>
</g>
<g>
	<g>
		<rect x="40" y="392" width="16" height="16"/>
	</g>
</g>
<g>
	<g>
		<rect x="104" y="392" width="16" height="16"/>
	</g>
</g>
<g>
	<g>
		<rect x="392" y="360" width="16" height="16"/>
	</g>
</g>
<g>
	<g>
		<rect x="392" y="392" width="16" height="16"/>
	</g>
</g>
<g>
	<g>
		<rect x="360" y="392" width="16" height="16"/>
	</g>
</g>
<g>
	<g>
		<rect x="424" y="392" width="16" height="16"/>
	</g>
</g>
<g>
</g>
<g>
</g>
<g>
</g>
<g>
</g>
<g>
</g>
<g>
</g>
<g>
</g>
<g>
</g>
<g>
</g>
<g>
</g>
<g>
</g>
<g>
</g>
<g>
</g>
<g>
</g>
<g>
</g>
</svg>
